<?xml version="1.0" encoding="utf-8"?>
<!-- Generator: Adobe Illustrator 21.1.0, SVG Export Plug-In . SVG Version: 6.00 Build 0)  -->
<svg version="1.1" id="Ebene_1" xmlns="http://www.w3.org/2000/svg" xmlns:xlink="http://www.w3.org/1999/xlink" x="0px" y="0px"
	 viewBox="0 0 1148 384" style="enable-background:new 0 0 1148 384;" xml:space="preserve">
<style type="text/css">
	.st0{fill:#FFCC00;}
	.st1{opacity:0.3;fill:#003399;}
</style>
<g>
	<rect x="0.5" y="0.5" class="st0" width="1147" height="383"/>
	<path d="M1147,1v382H1V1H1147 M1148,0H0v384h1148V0L1148,0z"/>
</g>
<g>
	<rect x="737.1" y="267.5" class="st1" width="6.7" height="6.4"/>
	<rect x="737.1" y="275.4" class="st1" width="6.7" height="6.4"/>
	<rect x="728.9" y="267.5" class="st1" width="6.7" height="6.4"/>
	<rect x="720.7" y="267.5" class="st1" width="6.7" height="6.4"/>
	<rect x="720.7" y="275.4" class="st1" width="6.7" height="6.4"/>
	<rect x="728.9" y="275.4" class="st1" width="6.7" height="6.4"/>
	<rect x="737.1" y="267.5" class="st1" width="6.7" height="6.4"/>
	<rect x="737.1" y="275.4" class="st1" width="6.7" height="6.4"/>
	<rect x="728.9" y="267.5" class="st1" width="6.7" height="6.4"/>
	<rect x="720.7" y="267.5" class="st1" width="6.7" height="6.4"/>
	<rect x="720.7" y="275.4" class="st1" width="6.7" height="6.4"/>
	<rect x="728.9" y="275.4" class="st1" width="6.7" height="6.4"/>
	<rect x="737.1" y="251.7" class="st1" width="6.7" height="6.4"/>
	<rect x="737.1" y="259.6" class="st1" width="6.7" height="6.4"/>
	<rect x="728.9" y="251.7" class="st1" width="6.7" height="6.4"/>
	<rect x="720.7" y="259.6" class="st1" width="6.7" height="6.4"/>
	<rect x="728.9" y="259.6" class="st1" width="6.7" height="6.4"/>
	<rect x="761.6" y="267.5" class="st1" width="6.7" height="6.4"/>
	<rect x="761.6" y="275.4" class="st1" width="6.7" height="6.4"/>
	<rect x="753.4" y="267.5" class="st1" width="6.7" height="6.4"/>
	<rect x="745.3" y="267.5" class="st1" width="6.7" height="6.4"/>
	<rect x="745.3" y="275.4" class="st1" width="6.7" height="6.4"/>
	<rect x="753.4" y="275.4" class="st1" width="6.7" height="6.4"/>
	<rect x="761.6" y="267.5" class="st1" width="6.7" height="6.4"/>
	<rect x="761.6" y="275.4" class="st1" width="6.7" height="6.4"/>
	<rect x="753.4" y="267.5" class="st1" width="6.7" height="6.4"/>
	<rect x="745.3" y="267.5" class="st1" width="6.7" height="6.4"/>
	<rect x="745.3" y="275.4" class="st1" width="6.7" height="6.4"/>
	<rect x="753.4" y="275.4" class="st1" width="6.7" height="6.4"/>
	<rect x="761.6" y="251.7" class="st1" width="6.7" height="6.4"/>
	<rect x="761.6" y="259.6" class="st1" width="6.7" height="6.4"/>
	<rect x="753.4" y="251.7" class="st1" width="6.7" height="6.4"/>
	<rect x="745.3" y="251.7" class="st1" width="6.7" height="6.4"/>
	<rect x="745.3" y="259.6" class="st1" width="6.7" height="6.4"/>
	<rect x="753.4" y="259.6" class="st1" width="6.7" height="6.4"/>
	<rect x="786.2" y="267.5" class="st1" width="6.7" height="6.4"/>
	<rect x="769.8" y="267.5" class="st1" width="6.7" height="6.4"/>
	<rect x="786.2" y="267.5" class="st1" width="6.7" height="6.4"/>
	<rect x="769.8" y="267.5" class="st1" width="6.7" height="6.4"/>
	<rect x="786.2" y="251.7" class="st1" width="6.7" height="6.4"/>
	<rect x="778" y="251.7" class="st1" width="6.7" height="6.4"/>
	<rect x="769.8" y="251.7" class="st1" width="6.7" height="6.4"/>
	<rect x="769.8" y="259.6" class="st1" width="6.7" height="6.4"/>
	<rect x="778" y="259.6" class="st1" width="6.7" height="6.4"/>
	<rect x="753.4" y="283.3" class="st1" width="6.7" height="6.4"/>
	<rect x="745.3" y="283.3" class="st1" width="6.7" height="6.4"/>
	<rect x="745.3" y="291.3" class="st1" width="6.7" height="6.4"/>
	<rect x="761.6" y="283.3" class="st1" width="6.7" height="6.4"/>
	<rect x="737.1" y="283.4" class="st1" width="6.7" height="6.5"/>
	<rect x="728.9" y="283.4" class="st1" width="6.7" height="6.5"/>
	<rect x="728.9" y="291.4" class="st1" width="6.7" height="6.5"/>
	<rect x="737.1" y="291.4" class="st1" width="6.7" height="6.5"/>
	<rect x="761.6" y="212" class="st1" width="6.7" height="6.4"/>
	<rect x="761.6" y="212" class="st1" width="6.7" height="6.4"/>
	<rect x="761.6" y="204.1" class="st1" width="6.7" height="6.4"/>
	<rect x="786.2" y="212" class="st1" width="6.7" height="6.4"/>
	<rect x="786.2" y="219.8" class="st1" width="6.7" height="6.4"/>
	<rect x="778" y="212" class="st1" width="6.7" height="6.4"/>
	<rect x="769.8" y="212" class="st1" width="6.7" height="6.4"/>
	<rect x="769.8" y="219.8" class="st1" width="6.7" height="6.4"/>
	<rect x="778" y="219.8" class="st1" width="6.7" height="6.4"/>
	<rect x="786.2" y="212" class="st1" width="6.7" height="6.4"/>
	<rect x="786.2" y="219.8" class="st1" width="6.7" height="6.4"/>
	<rect x="778" y="212" class="st1" width="6.7" height="6.4"/>
	<rect x="769.8" y="212" class="st1" width="6.7" height="6.4"/>
	<rect x="769.8" y="219.8" class="st1" width="6.7" height="6.4"/>
	<rect x="778" y="219.8" class="st1" width="6.7" height="6.4"/>
	<rect x="786.2" y="196.3" class="st1" width="6.7" height="6.4"/>
	<rect x="786.2" y="204.1" class="st1" width="6.7" height="6.4"/>
	<rect x="769.8" y="204.1" class="st1" width="6.7" height="6.4"/>
	<rect x="778" y="204.1" class="st1" width="6.7" height="6.4"/>
	<rect x="802.6" y="212" class="st1" width="6.7" height="6.4"/>
	<rect x="794.4" y="212" class="st1" width="6.7" height="6.4"/>
	<rect x="794.4" y="219.8" class="st1" width="6.7" height="6.4"/>
	<rect x="802.6" y="219.8" class="st1" width="6.7" height="6.4"/>
	<rect x="802.6" y="212" class="st1" width="6.7" height="6.4"/>
	<rect x="794.4" y="212" class="st1" width="6.7" height="6.4"/>
	<rect x="794.4" y="219.8" class="st1" width="6.7" height="6.4"/>
	<rect x="802.6" y="219.8" class="st1" width="6.7" height="6.4"/>
	<rect x="802.6" y="196.3" class="st1" width="6.7" height="6.4"/>
	<rect x="794.4" y="196.3" class="st1" width="6.7" height="6.4"/>
	<rect x="794.4" y="204.1" class="st1" width="6.7" height="6.4"/>
	<rect x="802.6" y="204.1" class="st1" width="6.7" height="6.4"/>
	<rect x="753.4" y="243.3" class="st1" width="6.7" height="6.4"/>
	<rect x="745.3" y="243.3" class="st1" width="6.7" height="6.4"/>
	<rect x="753.4" y="243.3" class="st1" width="6.7" height="6.4"/>
	<rect x="745.3" y="243.3" class="st1" width="6.7" height="6.4"/>
	<rect x="778" y="243.3" class="st1" width="6.7" height="6.4"/>
	<rect x="769.8" y="243.3" class="st1" width="6.7" height="6.4"/>
	<rect x="761.6" y="243.3" class="st1" width="6.7" height="6.4"/>
	<rect x="778" y="243.3" class="st1" width="6.7" height="6.4"/>
	<rect x="769.8" y="243.3" class="st1" width="6.7" height="6.4"/>
	<rect x="761.6" y="243.3" class="st1" width="6.7" height="6.4"/>
	<rect x="778" y="227.7" class="st1" width="6.7" height="6.4"/>
	<rect x="778" y="235.5" class="st1" width="6.7" height="6.4"/>
	<rect x="769.8" y="227.7" class="st1" width="6.7" height="6.4"/>
	<rect x="769.8" y="235.5" class="st1" width="6.7" height="6.4"/>
	<rect x="802.6" y="243.3" class="st1" width="6.7" height="6.4"/>
	<rect x="794.4" y="243.3" class="st1" width="6.7" height="6.4"/>
	<rect x="786.2" y="243.3" class="st1" width="6.7" height="6.4"/>
	<rect x="802.6" y="243.3" class="st1" width="6.7" height="6.4"/>
	<rect x="794.4" y="243.3" class="st1" width="6.7" height="6.4"/>
	<rect x="786.2" y="243.3" class="st1" width="6.7" height="6.4"/>
	<rect x="802.6" y="227.7" class="st1" width="6.7" height="6.4"/>
	<rect x="802.6" y="235.5" class="st1" width="6.7" height="6.4"/>
	<rect x="794.4" y="227.7" class="st1" width="6.7" height="6.4"/>
	<rect x="786.2" y="227.7" class="st1" width="6.7" height="6.4"/>
	<rect x="786.2" y="235.5" class="st1" width="6.7" height="6.4"/>
	<rect x="794.4" y="235.5" class="st1" width="6.7" height="6.4"/>
	<rect x="737.1" y="243.6" class="st1" width="6.7" height="6.5"/>
	<rect x="728.9" y="243.6" class="st1" width="6.7" height="6.5"/>
	<rect x="737.1" y="243.6" class="st1" width="6.7" height="6.5"/>
	<rect x="728.9" y="243.6" class="st1" width="6.7" height="6.5"/>
	<rect x="728.9" y="235.6" class="st1" width="6.7" height="6.5"/>
	<rect x="737.1" y="235.6" class="st1" width="6.7" height="6.5"/>
	<rect x="835.9" y="251.4" class="st1" width="6.7" height="6.4"/>
	<rect x="835.9" y="259.3" class="st1" width="6.7" height="6.4"/>
	<rect x="819.5" y="251.4" class="st1" width="6.7" height="6.4"/>
	<rect x="819.5" y="259.3" class="st1" width="6.7" height="6.4"/>
	<rect x="860.4" y="267.2" class="st1" width="6.7" height="6.4"/>
	<rect x="860.4" y="275.1" class="st1" width="6.7" height="6.4"/>
	<rect x="852.2" y="267.2" class="st1" width="6.7" height="6.4"/>
	<rect x="852.2" y="275.1" class="st1" width="6.7" height="6.4"/>
	<rect x="860.4" y="267.2" class="st1" width="6.7" height="6.4"/>
	<rect x="860.4" y="275.1" class="st1" width="6.7" height="6.4"/>
	<rect x="852.2" y="267.2" class="st1" width="6.7" height="6.4"/>
	<rect x="852.2" y="275.1" class="st1" width="6.7" height="6.4"/>
	<rect x="860.4" y="251.4" class="st1" width="6.7" height="6.4"/>
	<rect x="844.1" y="251.4" class="st1" width="6.7" height="6.4"/>
	<rect x="844.1" y="259.3" class="st1" width="6.7" height="6.4"/>
	<rect x="852.2" y="259.3" class="st1" width="6.7" height="6.4"/>
	<rect x="885" y="267.2" class="st1" width="6.7" height="6.4"/>
	<rect x="885" y="275.1" class="st1" width="6.7" height="6.4"/>
	<rect x="868.6" y="267.2" class="st1" width="6.7" height="6.4"/>
	<rect x="885" y="267.2" class="st1" width="6.7" height="6.4"/>
	<rect x="885" y="275.1" class="st1" width="6.7" height="6.4"/>
	<rect x="868.6" y="267.2" class="st1" width="6.7" height="6.4"/>
	<rect x="885" y="251.4" class="st1" width="6.7" height="6.4"/>
	<rect x="885" y="259.3" class="st1" width="6.7" height="6.4"/>
	<rect x="876.8" y="251.4" class="st1" width="6.7" height="6.4"/>
	<rect x="868.6" y="251.4" class="st1" width="6.7" height="6.4"/>
	<rect x="876.8" y="259.3" class="st1" width="6.7" height="6.4"/>
	<rect x="893.2" y="267.2" class="st1" width="6.7" height="6.4"/>
	<rect x="893.2" y="275.1" class="st1" width="6.7" height="6.4"/>
	<rect x="893.2" y="267.2" class="st1" width="6.7" height="6.4"/>
	<rect x="893.2" y="275.1" class="st1" width="6.7" height="6.4"/>
	<rect x="901.4" y="251.4" class="st1" width="6.7" height="6.4"/>
	<rect x="893.2" y="251.4" class="st1" width="6.7" height="6.4"/>
	<rect x="893.2" y="259.3" class="st1" width="6.7" height="6.4"/>
	<rect x="852.2" y="282.9" class="st1" width="6.7" height="6.4"/>
	<rect x="844.1" y="282.9" class="st1" width="6.7" height="6.4"/>
	<rect x="844.1" y="290.8" class="st1" width="6.7" height="6.4"/>
	<rect x="901.4" y="298.7" class="st1" width="6.7" height="6.4"/>
	<rect x="901.4" y="298.7" class="st1" width="6.7" height="6.4"/>
	<rect x="893.2" y="282.9" class="st1" width="6.7" height="6.4"/>
	<rect x="885" y="282.9" class="st1" width="6.7" height="6.4"/>
	<rect x="893.2" y="290.8" class="st1" width="6.7" height="6.4"/>
	<rect x="811.3" y="267.4" class="st1" width="6.7" height="6.5"/>
	<rect x="811.3" y="275.4" class="st1" width="6.7" height="6.5"/>
	<rect x="811.3" y="267.4" class="st1" width="6.7" height="6.5"/>
	<rect x="811.3" y="275.4" class="st1" width="6.7" height="6.5"/>
	<rect x="835.9" y="283" class="st1" width="6.7" height="6.5"/>
	<rect x="835.9" y="291" class="st1" width="6.7" height="6.5"/>
	<rect x="835.9" y="211.9" class="st1" width="6.7" height="6.3"/>
	<rect x="835.9" y="219.7" class="st1" width="6.7" height="6.3"/>
	<rect x="827.7" y="211.9" class="st1" width="6.7" height="6.3"/>
	<rect x="819.5" y="211.9" class="st1" width="6.7" height="6.3"/>
	<rect x="819.5" y="219.7" class="st1" width="6.7" height="6.3"/>
	<rect x="827.7" y="219.7" class="st1" width="6.7" height="6.3"/>
	<rect x="835.9" y="211.9" class="st1" width="6.7" height="6.3"/>
	<rect x="835.9" y="219.7" class="st1" width="6.7" height="6.3"/>
	<rect x="827.7" y="211.9" class="st1" width="6.7" height="6.3"/>
	<rect x="819.5" y="211.9" class="st1" width="6.7" height="6.3"/>
	<rect x="819.5" y="219.7" class="st1" width="6.7" height="6.3"/>
	<rect x="827.7" y="219.7" class="st1" width="6.7" height="6.3"/>
	<rect x="835.9" y="196.3" class="st1" width="6.7" height="6.3"/>
	<rect x="835.9" y="204.1" class="st1" width="6.7" height="6.3"/>
	<rect x="827.7" y="196.3" class="st1" width="6.7" height="6.3"/>
	<rect x="819.5" y="196.3" class="st1" width="6.7" height="6.3"/>
	<rect x="819.5" y="204.1" class="st1" width="6.7" height="6.3"/>
	<rect x="827.7" y="204.1" class="st1" width="6.7" height="6.3"/>
	<rect x="860.4" y="211.9" class="st1" width="6.7" height="6.3"/>
	<rect x="860.4" y="219.7" class="st1" width="6.7" height="6.3"/>
	<rect x="852.2" y="211.9" class="st1" width="6.7" height="6.3"/>
	<rect x="844.1" y="211.9" class="st1" width="6.7" height="6.3"/>
	<rect x="844.1" y="219.7" class="st1" width="6.7" height="6.3"/>
	<rect x="852.2" y="219.7" class="st1" width="6.7" height="6.3"/>
	<rect x="860.4" y="211.9" class="st1" width="6.7" height="6.3"/>
	<rect x="860.4" y="219.7" class="st1" width="6.7" height="6.3"/>
	<rect x="852.2" y="211.9" class="st1" width="6.7" height="6.3"/>
	<rect x="844.1" y="211.9" class="st1" width="6.7" height="6.3"/>
	<rect x="844.1" y="219.7" class="st1" width="6.7" height="6.3"/>
	<rect x="852.2" y="219.7" class="st1" width="6.7" height="6.3"/>
	<rect x="860.4" y="196.3" class="st1" width="6.7" height="6.3"/>
	<rect x="860.4" y="204.1" class="st1" width="6.7" height="6.3"/>
	<rect x="852.2" y="196.3" class="st1" width="6.7" height="6.3"/>
	<rect x="844.1" y="196.3" class="st1" width="6.7" height="6.3"/>
	<rect x="844.1" y="204.1" class="st1" width="6.7" height="6.3"/>
	<rect x="852.2" y="204.1" class="st1" width="6.7" height="6.3"/>
	<rect x="885" y="211.9" class="st1" width="6.7" height="6.3"/>
	<rect x="885" y="219.7" class="st1" width="6.7" height="6.3"/>
	<rect x="876.8" y="211.9" class="st1" width="6.7" height="6.3"/>
	<rect x="868.6" y="211.9" class="st1" width="6.7" height="6.3"/>
	<rect x="868.6" y="219.7" class="st1" width="6.7" height="6.3"/>
	<rect x="876.8" y="219.7" class="st1" width="6.7" height="6.3"/>
	<rect x="885" y="211.9" class="st1" width="6.7" height="6.3"/>
	<rect x="885" y="219.7" class="st1" width="6.7" height="6.3"/>
	<rect x="876.8" y="211.9" class="st1" width="6.7" height="6.3"/>
	<rect x="868.6" y="211.9" class="st1" width="6.7" height="6.3"/>
	<rect x="868.6" y="219.7" class="st1" width="6.7" height="6.3"/>
	<rect x="876.8" y="219.7" class="st1" width="6.7" height="6.3"/>
	<rect x="885" y="196.3" class="st1" width="6.7" height="6.3"/>
	<rect x="885" y="204.1" class="st1" width="6.7" height="6.3"/>
	<rect x="876.8" y="196.3" class="st1" width="6.7" height="6.3"/>
	<rect x="868.6" y="196.3" class="st1" width="6.7" height="6.3"/>
	<rect x="868.6" y="204.1" class="st1" width="6.7" height="6.3"/>
	<rect x="876.8" y="204.1" class="st1" width="6.7" height="6.3"/>
	<rect x="901.4" y="211.9" class="st1" width="6.7" height="6.3"/>
	<rect x="893.2" y="211.9" class="st1" width="6.7" height="6.3"/>
	<rect x="893.2" y="219.7" class="st1" width="6.7" height="6.3"/>
	<rect x="901.4" y="219.7" class="st1" width="6.7" height="6.3"/>
	<rect x="901.4" y="211.9" class="st1" width="6.7" height="6.3"/>
	<rect x="893.2" y="211.9" class="st1" width="6.7" height="6.3"/>
	<rect x="893.2" y="219.7" class="st1" width="6.7" height="6.3"/>
	<rect x="901.4" y="219.7" class="st1" width="6.7" height="6.3"/>
	<rect x="901.4" y="196.3" class="st1" width="6.7" height="6.3"/>
	<rect x="893.2" y="196.3" class="st1" width="6.7" height="6.3"/>
	<rect x="893.2" y="204.1" class="st1" width="6.7" height="6.3"/>
	<rect x="901.4" y="204.1" class="st1" width="6.7" height="6.3"/>
	<rect x="852.2" y="243.1" class="st1" width="6.7" height="6.3"/>
	<rect x="852.2" y="243.1" class="st1" width="6.7" height="6.3"/>
	<rect x="852.2" y="227.5" class="st1" width="6.7" height="6.3"/>
	<rect x="852.2" y="235.3" class="st1" width="6.7" height="6.3"/>
	<rect x="844.1" y="227.5" class="st1" width="6.7" height="6.3"/>
	<rect x="844.1" y="235.3" class="st1" width="6.7" height="6.3"/>
	<rect x="876.8" y="243.1" class="st1" width="6.7" height="6.3"/>
	<rect x="868.6" y="243.1" class="st1" width="6.7" height="6.3"/>
	<rect x="860.4" y="243.1" class="st1" width="6.7" height="6.3"/>
	<rect x="876.8" y="243.1" class="st1" width="6.7" height="6.3"/>
	<rect x="868.6" y="243.1" class="st1" width="6.7" height="6.3"/>
	<rect x="860.4" y="243.1" class="st1" width="6.7" height="6.3"/>
	<rect x="876.8" y="227.5" class="st1" width="6.7" height="6.3"/>
	<rect x="876.8" y="235.3" class="st1" width="6.7" height="6.3"/>
	<rect x="868.6" y="227.5" class="st1" width="6.7" height="6.3"/>
	<rect x="860.4" y="227.5" class="st1" width="6.7" height="6.3"/>
	<rect x="860.4" y="235.3" class="st1" width="6.7" height="6.3"/>
	<rect x="868.6" y="235.3" class="st1" width="6.7" height="6.3"/>
	<rect x="901.4" y="243.1" class="st1" width="6.7" height="6.3"/>
	<rect x="893.2" y="243.1" class="st1" width="6.7" height="6.3"/>
	<rect x="885" y="243.1" class="st1" width="6.7" height="6.3"/>
	<rect x="901.4" y="243.1" class="st1" width="6.7" height="6.3"/>
	<rect x="893.2" y="243.1" class="st1" width="6.7" height="6.3"/>
	<rect x="885" y="243.1" class="st1" width="6.7" height="6.3"/>
	<rect x="901.4" y="227.5" class="st1" width="6.7" height="6.3"/>
	<rect x="901.4" y="235.3" class="st1" width="6.7" height="6.3"/>
	<rect x="893.2" y="227.5" class="st1" width="6.7" height="6.3"/>
	<rect x="885" y="227.5" class="st1" width="6.7" height="6.3"/>
	<rect x="885" y="235.3" class="st1" width="6.7" height="6.3"/>
	<rect x="893.2" y="235.3" class="st1" width="6.7" height="6.3"/>
	<rect x="811.3" y="212.2" class="st1" width="6.7" height="6.4"/>
	<rect x="811.3" y="220.1" class="st1" width="6.7" height="6.4"/>
	<rect x="811.3" y="212.2" class="st1" width="6.7" height="6.4"/>
	<rect x="811.3" y="220.1" class="st1" width="6.7" height="6.4"/>
	<rect x="811.3" y="196.3" class="st1" width="6.7" height="6.4"/>
	<rect x="811.3" y="204.2" class="st1" width="6.7" height="6.4"/>
	<rect x="811.3" y="243.6" class="st1" width="6.7" height="6.3"/>
	<rect x="811.3" y="243.6" class="st1" width="6.7" height="6.3"/>
	<rect x="811.3" y="228" class="st1" width="6.7" height="6.3"/>
	<rect x="811.3" y="235.8" class="st1" width="6.7" height="6.3"/>
	<rect x="819.5" y="227.5" class="st1" width="6.7" height="6.4"/>
	<rect x="819.5" y="235.5" class="st1" width="6.7" height="6.4"/>
	<rect x="835.9" y="243.4" class="st1" width="6.7" height="6.4"/>
	<rect x="827.7" y="243.4" class="st1" width="6.7" height="6.4"/>
	<rect x="835.9" y="243.4" class="st1" width="6.7" height="6.4"/>
	<rect x="827.7" y="243.4" class="st1" width="6.7" height="6.4"/>
	<rect x="835.9" y="227.5" class="st1" width="6.7" height="6.4"/>
	<rect x="827.7" y="227.5" class="st1" width="6.7" height="6.4"/>
	<rect x="827.7" y="235.5" class="st1" width="6.7" height="6.4"/>
	<rect x="835.9" y="235.5" class="st1" width="6.7" height="6.4"/>
	<rect x="761.6" y="156.3" class="st1" width="6.7" height="6.4"/>
	<rect x="761.6" y="164.2" class="st1" width="6.7" height="6.4"/>
	<rect x="753.4" y="156.3" class="st1" width="6.7" height="6.4"/>
	<rect x="745.3" y="164.2" class="st1" width="6.7" height="6.4"/>
	<rect x="753.4" y="164.2" class="st1" width="6.7" height="6.4"/>
	<rect x="761.6" y="156.3" class="st1" width="6.7" height="6.4"/>
	<rect x="761.6" y="164.2" class="st1" width="6.7" height="6.4"/>
	<rect x="753.4" y="156.3" class="st1" width="6.7" height="6.4"/>
	<rect x="745.3" y="164.2" class="st1" width="6.7" height="6.4"/>
	<rect x="753.4" y="164.2" class="st1" width="6.7" height="6.4"/>
	<rect x="761.6" y="148.3" class="st1" width="6.7" height="6.4"/>
	<rect x="778" y="156.3" class="st1" width="6.7" height="6.4"/>
	<rect x="769.8" y="156.3" class="st1" width="6.7" height="6.4"/>
	<rect x="769.8" y="164.2" class="st1" width="6.7" height="6.4"/>
	<rect x="778" y="164.2" class="st1" width="6.7" height="6.4"/>
	<rect x="778" y="156.3" class="st1" width="6.7" height="6.4"/>
	<rect x="769.8" y="156.3" class="st1" width="6.7" height="6.4"/>
	<rect x="769.8" y="164.2" class="st1" width="6.7" height="6.4"/>
	<rect x="778" y="164.2" class="st1" width="6.7" height="6.4"/>
	<rect x="778" y="140.4" class="st1" width="6.7" height="6.4"/>
	<rect x="769.8" y="140.4" class="st1" width="6.7" height="6.4"/>
	<rect x="769.8" y="148.3" class="st1" width="6.7" height="6.4"/>
	<rect x="753.4" y="187.9" class="st1" width="6.7" height="6.4"/>
	<rect x="753.4" y="187.9" class="st1" width="6.7" height="6.4"/>
	<rect x="753.4" y="172.1" class="st1" width="6.7" height="6.4"/>
	<rect x="745.3" y="172.1" class="st1" width="6.7" height="6.4"/>
	<rect x="778" y="187.9" class="st1" width="6.7" height="6.4"/>
	<rect x="769.8" y="187.9" class="st1" width="6.7" height="6.4"/>
	<rect x="761.6" y="187.9" class="st1" width="6.7" height="6.4"/>
	<rect x="778" y="187.9" class="st1" width="6.7" height="6.4"/>
	<rect x="769.8" y="187.9" class="st1" width="6.7" height="6.4"/>
	<rect x="761.6" y="187.9" class="st1" width="6.7" height="6.4"/>
	<rect x="778" y="172.1" class="st1" width="6.7" height="6.4"/>
	<rect x="778" y="180" class="st1" width="6.7" height="6.4"/>
	<rect x="769.8" y="172.1" class="st1" width="6.7" height="6.4"/>
	<rect x="761.6" y="180" class="st1" width="6.7" height="6.4"/>
	<rect x="769.8" y="180" class="st1" width="6.7" height="6.4"/>
	<rect x="802.6" y="187.9" class="st1" width="6.7" height="6.4"/>
	<rect x="794.4" y="187.9" class="st1" width="6.7" height="6.4"/>
	<rect x="802.6" y="187.9" class="st1" width="6.7" height="6.4"/>
	<rect x="794.4" y="187.9" class="st1" width="6.7" height="6.4"/>
	<rect x="802.6" y="180" class="st1" width="6.7" height="6.4"/>
	<rect x="786.2" y="180" class="st1" width="6.7" height="6.4"/>
	<rect x="737.1" y="85" class="st1" width="6.7" height="6.4"/>
	<rect x="745.3" y="85" class="st1" width="6.7" height="6.4"/>
	<rect x="802.6" y="116.4" class="st1" width="6.7" height="6.4"/>
	<rect x="802.6" y="124.2" class="st1" width="6.7" height="6.4"/>
	<rect x="835.9" y="155.9" class="st1" width="6.7" height="6.4"/>
	<rect x="827.7" y="155.9" class="st1" width="6.7" height="6.4"/>
	<rect x="819.5" y="155.9" class="st1" width="6.7" height="6.4"/>
	<rect x="819.5" y="163.8" class="st1" width="6.7" height="6.4"/>
	<rect x="827.7" y="155.9" class="st1" width="6.7" height="6.4"/>
	<rect x="819.5" y="155.9" class="st1" width="6.7" height="6.4"/>
	<rect x="819.5" y="163.8" class="st1" width="6.7" height="6.4"/>
	<rect x="835.9" y="140.2" class="st1" width="6.7" height="6.4"/>
	<rect x="835.9" y="148.1" class="st1" width="6.7" height="6.4"/>
	<rect x="827.7" y="140.2" class="st1" width="6.7" height="6.4"/>
	<rect x="819.5" y="148.1" class="st1" width="6.7" height="6.4"/>
	<rect x="844.1" y="140.2" class="st1" width="6.7" height="6.4"/>
	<rect x="844.1" y="148.1" class="st1" width="6.7" height="6.4"/>
	<rect x="885" y="155.9" class="st1" width="6.7" height="6.4"/>
	<rect x="885" y="163.8" class="st1" width="6.7" height="6.4"/>
	<rect x="876.8" y="155.9" class="st1" width="6.7" height="6.4"/>
	<rect x="868.6" y="155.9" class="st1" width="6.7" height="6.4"/>
	<rect x="868.6" y="163.8" class="st1" width="6.7" height="6.4"/>
	<rect x="876.8" y="163.8" class="st1" width="6.7" height="6.4"/>
	<rect x="885" y="155.9" class="st1" width="6.7" height="6.4"/>
	<rect x="885" y="163.8" class="st1" width="6.7" height="6.4"/>
	<rect x="876.8" y="155.9" class="st1" width="6.7" height="6.4"/>
	<rect x="868.6" y="155.9" class="st1" width="6.7" height="6.4"/>
	<rect x="868.6" y="163.8" class="st1" width="6.7" height="6.4"/>
	<rect x="876.8" y="163.8" class="st1" width="6.7" height="6.4"/>
	<rect x="885" y="140.2" class="st1" width="6.7" height="6.4"/>
	<rect x="885" y="148.1" class="st1" width="6.7" height="6.4"/>
	<rect x="876.8" y="140.2" class="st1" width="6.7" height="6.4"/>
	<rect x="868.6" y="148.1" class="st1" width="6.7" height="6.4"/>
	<rect x="876.8" y="148.1" class="st1" width="6.7" height="6.4"/>
	<rect x="901.4" y="155.9" class="st1" width="6.7" height="6.4"/>
	<rect x="893.2" y="155.9" class="st1" width="6.7" height="6.4"/>
	<rect x="893.2" y="163.8" class="st1" width="6.7" height="6.4"/>
	<rect x="901.4" y="163.8" class="st1" width="6.7" height="6.4"/>
	<rect x="901.4" y="155.9" class="st1" width="6.7" height="6.4"/>
	<rect x="893.2" y="155.9" class="st1" width="6.7" height="6.4"/>
	<rect x="893.2" y="163.8" class="st1" width="6.7" height="6.4"/>
	<rect x="901.4" y="163.8" class="st1" width="6.7" height="6.4"/>
	<rect x="901.4" y="140.2" class="st1" width="6.7" height="6.4"/>
	<rect x="893.2" y="140.2" class="st1" width="6.7" height="6.4"/>
	<rect x="893.2" y="148.1" class="st1" width="6.7" height="6.4"/>
	<rect x="901.4" y="148.1" class="st1" width="6.7" height="6.4"/>
	<rect x="852.2" y="187.4" class="st1" width="6.7" height="6.4"/>
	<rect x="844.1" y="187.4" class="st1" width="6.7" height="6.4"/>
	<rect x="852.2" y="187.4" class="st1" width="6.7" height="6.4"/>
	<rect x="844.1" y="187.4" class="st1" width="6.7" height="6.4"/>
	<rect x="852.2" y="171.7" class="st1" width="6.7" height="6.4"/>
	<rect x="852.2" y="179.6" class="st1" width="6.7" height="6.4"/>
	<rect x="844.1" y="171.7" class="st1" width="6.7" height="6.4"/>
	<rect x="844.1" y="179.6" class="st1" width="6.7" height="6.4"/>
	<rect x="876.8" y="187.4" class="st1" width="6.7" height="6.4"/>
	<rect x="868.6" y="187.4" class="st1" width="6.7" height="6.4"/>
	<rect x="860.4" y="187.4" class="st1" width="6.7" height="6.4"/>
	<rect x="876.8" y="187.4" class="st1" width="6.7" height="6.4"/>
	<rect x="868.6" y="187.4" class="st1" width="6.7" height="6.4"/>
	<rect x="860.4" y="187.4" class="st1" width="6.7" height="6.4"/>
	<rect x="876.8" y="171.7" class="st1" width="6.7" height="6.4"/>
	<rect x="876.8" y="179.6" class="st1" width="6.7" height="6.4"/>
	<rect x="868.6" y="171.7" class="st1" width="6.7" height="6.4"/>
	<rect x="860.4" y="171.7" class="st1" width="6.7" height="6.4"/>
	<rect x="860.4" y="179.6" class="st1" width="6.7" height="6.4"/>
	<rect x="868.6" y="179.6" class="st1" width="6.7" height="6.4"/>
	<rect x="901.4" y="187.4" class="st1" width="6.7" height="6.4"/>
	<rect x="893.2" y="187.4" class="st1" width="6.7" height="6.4"/>
	<rect x="885" y="187.4" class="st1" width="6.7" height="6.4"/>
	<rect x="901.4" y="187.4" class="st1" width="6.7" height="6.4"/>
	<rect x="893.2" y="187.4" class="st1" width="6.7" height="6.4"/>
	<rect x="885" y="187.4" class="st1" width="6.7" height="6.4"/>
	<rect x="901.4" y="171.7" class="st1" width="6.7" height="6.4"/>
	<rect x="901.4" y="179.6" class="st1" width="6.7" height="6.4"/>
	<rect x="893.2" y="171.7" class="st1" width="6.7" height="6.4"/>
	<rect x="885" y="171.7" class="st1" width="6.7" height="6.4"/>
	<rect x="885" y="179.6" class="st1" width="6.7" height="6.4"/>
	<rect x="893.2" y="179.6" class="st1" width="6.7" height="6.4"/>
	<rect x="811.3" y="140.2" class="st1" width="6.7" height="6.5"/>
	<rect x="811.3" y="187.9" class="st1" width="6.7" height="6.4"/>
	<rect x="811.3" y="187.9" class="st1" width="6.7" height="6.4"/>
	<rect x="811.3" y="180.1" class="st1" width="6.7" height="6.4"/>
	<rect x="819.5" y="187.7" class="st1" width="6.7" height="6.5"/>
	<rect x="819.5" y="187.7" class="st1" width="6.7" height="6.5"/>
	<rect x="819.5" y="171.7" class="st1" width="6.7" height="6.5"/>
	<rect x="819.5" y="179.7" class="st1" width="6.7" height="6.5"/>
	<rect x="835.9" y="187.7" class="st1" width="6.7" height="6.5"/>
	<rect x="827.7" y="187.7" class="st1" width="6.7" height="6.5"/>
	<rect x="835.9" y="187.7" class="st1" width="6.7" height="6.5"/>
	<rect x="827.7" y="187.7" class="st1" width="6.7" height="6.5"/>
	<rect x="835.9" y="171.7" class="st1" width="6.7" height="6.5"/>
	<rect x="827.7" y="171.7" class="st1" width="6.7" height="6.5"/>
	<rect x="827.7" y="179.7" class="st1" width="6.7" height="6.5"/>
	<rect x="835.9" y="179.7" class="st1" width="6.7" height="6.5"/>
	<rect x="835.9" y="100.7" class="st1" width="6.7" height="6.3"/>
	<rect x="835.9" y="108.5" class="st1" width="6.7" height="6.3"/>
	<rect x="827.7" y="100.7" class="st1" width="6.7" height="6.3"/>
	<rect x="819.5" y="108.5" class="st1" width="6.7" height="6.3"/>
	<rect x="827.7" y="108.5" class="st1" width="6.7" height="6.3"/>
	<rect x="835.9" y="100.7" class="st1" width="6.7" height="6.3"/>
	<rect x="835.9" y="108.5" class="st1" width="6.7" height="6.3"/>
	<rect x="827.7" y="100.7" class="st1" width="6.7" height="6.3"/>
	<rect x="819.5" y="108.5" class="st1" width="6.7" height="6.3"/>
	<rect x="827.7" y="108.5" class="st1" width="6.7" height="6.3"/>
	<rect x="835.9" y="85" class="st1" width="6.7" height="6.3"/>
	<rect x="835.9" y="92.9" class="st1" width="6.7" height="6.3"/>
	<rect x="827.7" y="92.9" class="st1" width="6.7" height="6.3"/>
	<rect x="860.4" y="100.7" class="st1" width="6.7" height="6.3"/>
	<rect x="860.4" y="108.5" class="st1" width="6.7" height="6.3"/>
	<rect x="844.1" y="100.7" class="st1" width="6.7" height="6.3"/>
	<rect x="844.1" y="108.5" class="st1" width="6.7" height="6.3"/>
	<rect x="860.4" y="100.7" class="st1" width="6.7" height="6.3"/>
	<rect x="860.4" y="108.5" class="st1" width="6.7" height="6.3"/>
	<rect x="844.1" y="100.7" class="st1" width="6.7" height="6.3"/>
	<rect x="844.1" y="108.5" class="st1" width="6.7" height="6.3"/>
	<rect x="852.2" y="85" class="st1" width="6.7" height="6.3"/>
	<rect x="844.1" y="85" class="st1" width="6.7" height="6.3"/>
	<rect x="844.1" y="92.9" class="st1" width="6.7" height="6.3"/>
	<rect x="852.2" y="92.9" class="st1" width="6.7" height="6.3"/>
	<rect x="885" y="100.7" class="st1" width="6.7" height="6.3"/>
	<rect x="885" y="108.5" class="st1" width="6.7" height="6.3"/>
	<rect x="876.8" y="100.7" class="st1" width="6.7" height="6.3"/>
	<rect x="868.6" y="100.7" class="st1" width="6.7" height="6.3"/>
	<rect x="868.6" y="108.5" class="st1" width="6.7" height="6.3"/>
	<rect x="876.8" y="108.5" class="st1" width="6.7" height="6.3"/>
	<rect x="885" y="100.7" class="st1" width="6.7" height="6.3"/>
	<rect x="885" y="108.5" class="st1" width="6.7" height="6.3"/>
	<rect x="876.8" y="100.7" class="st1" width="6.7" height="6.3"/>
	<rect x="868.6" y="100.7" class="st1" width="6.7" height="6.3"/>
	<rect x="868.6" y="108.5" class="st1" width="6.7" height="6.3"/>
	<rect x="876.8" y="108.5" class="st1" width="6.7" height="6.3"/>
	<rect x="885" y="85" class="st1" width="6.7" height="6.3"/>
	<rect x="885" y="92.9" class="st1" width="6.7" height="6.3"/>
	<rect x="876.8" y="85" class="st1" width="6.7" height="6.3"/>
	<rect x="868.6" y="85" class="st1" width="6.7" height="6.3"/>
	<rect x="868.6" y="92.9" class="st1" width="6.7" height="6.3"/>
	<rect x="876.8" y="92.9" class="st1" width="6.7" height="6.3"/>
	<rect x="893.2" y="100.7" class="st1" width="6.7" height="6.3"/>
	<rect x="893.2" y="108.5" class="st1" width="6.7" height="6.3"/>
	<rect x="901.4" y="108.5" class="st1" width="6.7" height="6.3"/>
	<rect x="893.2" y="100.7" class="st1" width="6.7" height="6.3"/>
	<rect x="893.2" y="108.5" class="st1" width="6.7" height="6.3"/>
	<rect x="901.4" y="108.5" class="st1" width="6.7" height="6.3"/>
	<rect x="901.4" y="85" class="st1" width="6.7" height="6.3"/>
	<rect x="893.2" y="85" class="st1" width="6.7" height="6.3"/>
	<rect x="893.2" y="92.9" class="st1" width="6.7" height="6.3"/>
	<rect x="901.4" y="92.9" class="st1" width="6.7" height="6.3"/>
	<rect x="844.1" y="131.9" class="st1" width="6.7" height="6.3"/>
	<rect x="844.1" y="131.9" class="st1" width="6.7" height="6.3"/>
	<rect x="844.1" y="116.3" class="st1" width="6.7" height="6.3"/>
	<rect x="844.1" y="124.1" class="st1" width="6.7" height="6.3"/>
	<rect x="876.8" y="131.9" class="st1" width="6.7" height="6.3"/>
	<rect x="868.6" y="131.9" class="st1" width="6.7" height="6.3"/>
	<rect x="876.8" y="131.9" class="st1" width="6.7" height="6.3"/>
	<rect x="868.6" y="131.9" class="st1" width="6.7" height="6.3"/>
	<rect x="876.8" y="116.3" class="st1" width="6.7" height="6.3"/>
	<rect x="868.6" y="116.3" class="st1" width="6.7" height="6.3"/>
	<rect x="860.4" y="116.3" class="st1" width="6.7" height="6.3"/>
	<rect x="901.4" y="131.9" class="st1" width="6.7" height="6.3"/>
	<rect x="893.2" y="131.9" class="st1" width="6.7" height="6.3"/>
	<rect x="885" y="131.9" class="st1" width="6.7" height="6.3"/>
	<rect x="901.4" y="131.9" class="st1" width="6.7" height="6.3"/>
	<rect x="893.2" y="131.9" class="st1" width="6.7" height="6.3"/>
	<rect x="885" y="131.9" class="st1" width="6.7" height="6.3"/>
	<rect x="901.4" y="116.3" class="st1" width="6.7" height="6.3"/>
	<rect x="901.4" y="124.1" class="st1" width="6.7" height="6.3"/>
	<rect x="893.2" y="116.3" class="st1" width="6.7" height="6.3"/>
	<rect x="893.2" y="124.1" class="st1" width="6.7" height="6.3"/>
	<rect x="811.3" y="132.4" class="st1" width="6.7" height="6.3"/>
	<rect x="811.3" y="132.4" class="st1" width="6.7" height="6.3"/>
	<rect x="811.3" y="116.8" class="st1" width="6.7" height="6.3"/>
	<rect x="811.3" y="124.6" class="st1" width="6.7" height="6.3"/>
	<rect x="819.5" y="132.1" class="st1" width="6.7" height="6.4"/>
	<rect x="819.5" y="132.1" class="st1" width="6.7" height="6.4"/>
	<rect x="819.5" y="116.3" class="st1" width="6.7" height="6.4"/>
	<rect x="819.5" y="124.2" class="st1" width="6.7" height="6.4"/>
	<rect x="835.9" y="132.1" class="st1" width="6.7" height="6.4"/>
	<rect x="827.7" y="132.1" class="st1" width="6.7" height="6.4"/>
	<rect x="835.9" y="132.1" class="st1" width="6.7" height="6.4"/>
	<rect x="827.7" y="132.1" class="st1" width="6.7" height="6.4"/>
	<rect x="835.9" y="116.3" class="st1" width="6.7" height="6.4"/>
	<rect x="827.7" y="116.3" class="st1" width="6.7" height="6.4"/>
	<rect x="827.7" y="124.2" class="st1" width="6.7" height="6.4"/>
	<rect x="835.9" y="124.2" class="st1" width="6.7" height="6.4"/>
	<rect x="918.3" y="251.4" class="st1" width="6.7" height="6.4"/>
	<rect x="910.1" y="251.4" class="st1" width="6.7" height="6.4"/>
	<rect x="910.1" y="298.7" class="st1" width="6.7" height="6.4"/>
	<rect x="910.1" y="298.7" class="st1" width="6.7" height="6.4"/>
	<rect x="918.3" y="298.7" class="st1" width="6.7" height="6.4"/>
	<rect x="918.3" y="298.7" class="st1" width="6.7" height="6.4"/>
	<rect x="918.3" y="211.9" class="st1" width="6.7" height="6.3"/>
	<rect x="910.1" y="211.9" class="st1" width="6.7" height="6.3"/>
	<rect x="910.1" y="219.7" class="st1" width="6.7" height="6.3"/>
	<rect x="918.3" y="211.9" class="st1" width="6.7" height="6.3"/>
	<rect x="910.1" y="211.9" class="st1" width="6.7" height="6.3"/>
	<rect x="910.1" y="219.7" class="st1" width="6.7" height="6.3"/>
	<rect x="918.3" y="196.3" class="st1" width="6.7" height="6.3"/>
	<rect x="918.3" y="204.1" class="st1" width="6.7" height="6.3"/>
	<rect x="910.1" y="196.3" class="st1" width="6.7" height="6.3"/>
	<rect x="910.1" y="204.1" class="st1" width="6.7" height="6.3"/>
	<rect x="934.7" y="211.9" class="st1" width="6.7" height="6.3"/>
	<rect x="926.5" y="211.9" class="st1" width="6.7" height="6.3"/>
	<rect x="934.7" y="211.9" class="st1" width="6.7" height="6.3"/>
	<rect x="926.5" y="211.9" class="st1" width="6.7" height="6.3"/>
	<rect x="934.7" y="196.3" class="st1" width="6.7" height="6.3"/>
	<rect x="926.5" y="196.3" class="st1" width="6.7" height="6.3"/>
	<rect x="926.5" y="204.1" class="st1" width="6.7" height="6.3"/>
	<rect x="934.7" y="204.1" class="st1" width="6.7" height="6.3"/>
	<rect x="910.1" y="243.1" class="st1" width="6.7" height="6.3"/>
	<rect x="910.1" y="243.1" class="st1" width="6.7" height="6.3"/>
	<rect x="910.1" y="227.5" class="st1" width="6.7" height="6.3"/>
	<rect x="910.1" y="235.3" class="st1" width="6.7" height="6.3"/>
	<rect x="918.3" y="155.9" class="st1" width="6.7" height="6.4"/>
	<rect x="918.3" y="163.8" class="st1" width="6.7" height="6.4"/>
	<rect x="910.1" y="155.9" class="st1" width="6.7" height="6.4"/>
	<rect x="910.1" y="163.8" class="st1" width="6.7" height="6.4"/>
	<rect x="918.3" y="155.9" class="st1" width="6.7" height="6.4"/>
	<rect x="918.3" y="163.8" class="st1" width="6.7" height="6.4"/>
	<rect x="910.1" y="155.9" class="st1" width="6.7" height="6.4"/>
	<rect x="910.1" y="163.8" class="st1" width="6.7" height="6.4"/>
	<rect x="918.3" y="140.2" class="st1" width="6.7" height="6.4"/>
	<rect x="918.3" y="148.1" class="st1" width="6.7" height="6.4"/>
	<rect x="910.1" y="140.2" class="st1" width="6.7" height="6.4"/>
	<rect x="910.1" y="148.1" class="st1" width="6.7" height="6.4"/>
	<rect x="934.7" y="155.9" class="st1" width="6.7" height="6.4"/>
	<rect x="926.5" y="155.9" class="st1" width="6.7" height="6.4"/>
	<rect x="926.5" y="163.8" class="st1" width="6.7" height="6.4"/>
	<rect x="934.7" y="163.8" class="st1" width="6.7" height="6.4"/>
	<rect x="934.7" y="155.9" class="st1" width="6.7" height="6.4"/>
	<rect x="926.5" y="155.9" class="st1" width="6.7" height="6.4"/>
	<rect x="926.5" y="163.8" class="st1" width="6.7" height="6.4"/>
	<rect x="934.7" y="163.8" class="st1" width="6.7" height="6.4"/>
	<rect x="934.7" y="140.2" class="st1" width="6.7" height="6.4"/>
	<rect x="926.5" y="140.2" class="st1" width="6.7" height="6.4"/>
	<rect x="926.5" y="148.1" class="st1" width="6.7" height="6.4"/>
	<rect x="934.7" y="148.1" class="st1" width="6.7" height="6.4"/>
	<rect x="910.1" y="187.4" class="st1" width="6.7" height="6.4"/>
	<rect x="910.1" y="187.4" class="st1" width="6.7" height="6.4"/>
	<rect x="910.1" y="171.7" class="st1" width="6.7" height="6.4"/>
	<rect x="910.1" y="179.6" class="st1" width="6.7" height="6.4"/>
	<rect x="934.7" y="187.4" class="st1" width="6.7" height="6.4"/>
	<rect x="926.5" y="187.4" class="st1" width="6.7" height="6.4"/>
	<rect x="918.3" y="187.4" class="st1" width="6.7" height="6.4"/>
	<rect x="934.7" y="187.4" class="st1" width="6.7" height="6.4"/>
	<rect x="926.5" y="187.4" class="st1" width="6.7" height="6.4"/>
	<rect x="918.3" y="187.4" class="st1" width="6.7" height="6.4"/>
	<rect x="934.7" y="171.7" class="st1" width="6.7" height="6.4"/>
	<rect x="934.7" y="179.6" class="st1" width="6.7" height="6.4"/>
	<rect x="926.5" y="171.7" class="st1" width="6.7" height="6.4"/>
	<rect x="918.3" y="171.7" class="st1" width="6.7" height="6.4"/>
	<rect x="918.3" y="179.6" class="st1" width="6.7" height="6.4"/>
	<rect x="926.5" y="179.6" class="st1" width="6.7" height="6.4"/>
	<rect x="918.3" y="100.7" class="st1" width="6.7" height="6.3"/>
	<rect x="918.3" y="108.5" class="st1" width="6.7" height="6.3"/>
	<rect x="910.1" y="100.7" class="st1" width="6.7" height="6.3"/>
	<rect x="918.3" y="100.7" class="st1" width="6.7" height="6.3"/>
	<rect x="918.3" y="108.5" class="st1" width="6.7" height="6.3"/>
	<rect x="910.1" y="100.7" class="st1" width="6.7" height="6.3"/>
	<rect x="918.3" y="85" class="st1" width="6.7" height="6.3"/>
	<rect x="918.3" y="92.9" class="st1" width="6.7" height="6.3"/>
	<rect x="910.1" y="85" class="st1" width="6.7" height="6.3"/>
	<rect x="910.1" y="92.9" class="st1" width="6.7" height="6.3"/>
	<rect x="934.7" y="100.7" class="st1" width="6.7" height="6.3"/>
	<rect x="926.5" y="100.7" class="st1" width="6.7" height="6.3"/>
	<rect x="926.5" y="108.5" class="st1" width="6.7" height="6.3"/>
	<rect x="934.7" y="108.5" class="st1" width="6.7" height="6.3"/>
	<rect x="934.7" y="100.7" class="st1" width="6.7" height="6.3"/>
	<rect x="926.5" y="100.7" class="st1" width="6.7" height="6.3"/>
	<rect x="926.5" y="108.5" class="st1" width="6.7" height="6.3"/>
	<rect x="934.7" y="108.5" class="st1" width="6.7" height="6.3"/>
	<rect x="934.7" y="85" class="st1" width="6.7" height="6.3"/>
	<rect x="926.5" y="85" class="st1" width="6.7" height="6.3"/>
	<rect x="926.5" y="92.9" class="st1" width="6.7" height="6.3"/>
	<rect x="934.7" y="92.9" class="st1" width="6.7" height="6.3"/>
	<rect x="910.1" y="131.9" class="st1" width="6.7" height="6.3"/>
	<rect x="910.1" y="131.9" class="st1" width="6.7" height="6.3"/>
	<rect x="910.1" y="116.3" class="st1" width="6.7" height="6.3"/>
	<rect x="910.1" y="124.1" class="st1" width="6.7" height="6.3"/>
	<rect x="934.7" y="131.9" class="st1" width="6.7" height="6.3"/>
	<rect x="926.5" y="131.9" class="st1" width="6.7" height="6.3"/>
	<rect x="918.3" y="131.9" class="st1" width="6.7" height="6.3"/>
	<rect x="934.7" y="131.9" class="st1" width="6.7" height="6.3"/>
	<rect x="926.5" y="131.9" class="st1" width="6.7" height="6.3"/>
	<rect x="918.3" y="131.9" class="st1" width="6.7" height="6.3"/>
	<rect x="934.7" y="116.3" class="st1" width="6.7" height="6.3"/>
	<rect x="934.7" y="124.1" class="st1" width="6.7" height="6.3"/>
	<rect x="926.5" y="116.3" class="st1" width="6.7" height="6.3"/>
	<rect x="918.3" y="124.1" class="st1" width="6.7" height="6.3"/>
	<rect x="926.5" y="124.1" class="st1" width="6.7" height="6.3"/>
	<rect x="737.1" y="69" class="st1" width="6.7" height="6.4"/>
	<rect x="728.9" y="69" class="st1" width="6.7" height="6.4"/>
	<rect x="737.1" y="69" class="st1" width="6.7" height="6.4"/>
	<rect x="728.9" y="69" class="st1" width="6.7" height="6.4"/>
	<rect x="745.3" y="69" class="st1" width="6.7" height="6.4"/>
	<rect x="753.4" y="69" class="st1" width="6.7" height="6.4"/>
	<rect x="745.3" y="69" class="st1" width="6.7" height="6.4"/>
	<rect x="753.4" y="69" class="st1" width="6.7" height="6.4"/>
	<rect x="753.4" y="76.8" class="st1" width="6.7" height="6.4"/>
	<rect x="745.3" y="76.8" class="st1" width="6.7" height="6.4"/>
	<rect x="737.1" y="76.9" class="st1" width="6.7" height="6.5"/>
	<rect x="728.9" y="76.9" class="st1" width="6.7" height="6.5"/>
	<rect x="860.4" y="68.9" class="st1" width="6.7" height="6.3"/>
	<rect x="844.1" y="68.9" class="st1" width="6.7" height="6.3"/>
	<rect x="852.2" y="68.9" class="st1" width="6.7" height="6.3"/>
	<rect x="860.4" y="68.9" class="st1" width="6.7" height="6.3"/>
	<rect x="844.1" y="68.9" class="st1" width="6.7" height="6.3"/>
	<rect x="852.2" y="68.9" class="st1" width="6.7" height="6.3"/>
	<rect x="885" y="68.9" class="st1" width="6.7" height="6.3"/>
	<rect x="868.6" y="68.9" class="st1" width="6.7" height="6.3"/>
	<rect x="876.8" y="68.9" class="st1" width="6.7" height="6.3"/>
	<rect x="885" y="68.9" class="st1" width="6.7" height="6.3"/>
	<rect x="868.6" y="68.9" class="st1" width="6.7" height="6.3"/>
	<rect x="876.8" y="68.9" class="st1" width="6.7" height="6.3"/>
	<rect x="852.2" y="76.7" class="st1" width="6.7" height="6.3"/>
	<rect x="844.1" y="76.7" class="st1" width="6.7" height="6.3"/>
	<rect x="876.8" y="76.7" class="st1" width="6.7" height="6.3"/>
	<rect x="868.6" y="76.7" class="st1" width="6.7" height="6.3"/>
	<rect x="860.4" y="76.7" class="st1" width="6.7" height="6.3"/>
	<rect x="885" y="76.7" class="st1" width="6.7" height="6.3"/>
	<rect x="835.9" y="76.7" class="st1" width="6.7" height="6.4"/>
	<rect x="918.3" y="68.9" class="st1" width="6.7" height="6.3"/>
	<rect x="910.1" y="68.9" class="st1" width="6.7" height="6.3"/>
	<rect x="918.3" y="68.9" class="st1" width="6.7" height="6.3"/>
	<rect x="910.1" y="68.9" class="st1" width="6.7" height="6.3"/>
	<rect x="926.5" y="68.9" class="st1" width="6.7" height="6.3"/>
	<rect x="934.7" y="68.9" class="st1" width="6.7" height="6.3"/>
	<rect x="926.5" y="68.9" class="st1" width="6.7" height="6.3"/>
	<rect x="934.7" y="68.9" class="st1" width="6.7" height="6.3"/>
	<rect x="910.1" y="76.7" class="st1" width="6.7" height="6.3"/>
	<rect x="934.7" y="76.7" class="st1" width="6.7" height="6.3"/>
	<rect x="926.5" y="76.7" class="st1" width="6.7" height="6.3"/>
	<rect x="918.3" y="76.7" class="st1" width="6.7" height="6.3"/>
	<rect x="934.7" y="219.8" class="st1" width="6.7" height="6.3"/>
</g>
</svg>
